<?xml version="1.0" standalone="no"?><!DOCTYPE svg PUBLIC "-//W3C//DTD SVG 1.1//EN" "http://www.w3.org/Graphics/SVG/1.1/DTD/svg11.dtd"><svg class="icon" width="200px" height="200.00px" viewBox="0 0 1024 1024" version="1.1" xmlns="http://www.w3.org/2000/svg"><path fill="#333333" d="M512 1024C229.232 1024 0 794.768 0 512 0 229.232 229.232 0 512 0c282.768 0 512 229.232 512 512 0 282.768-229.232 512-512 512z m-61.808-708.512a42.784 42.784 0 0 0-65.008 36.576v318.928a42.784 42.784 0 0 0 65.008 36.576l262.56-159.456a42.784 42.784 0 0 0 0-73.152l-262.56-159.472z m-7.568 43.008l234.08 142.176a12.72 12.72 0 0 1 0 21.728l-234.08 142.16a12.72 12.72 0 0 1-19.312-10.88v-284.32a12.72 12.72 0 0 1 19.312-10.864z"  /></svg>