<?xml version="1.0" standalone="no"?><!DOCTYPE svg PUBLIC "-//W3C//DTD SVG 1.1//EN" "http://www.w3.org/Graphics/SVG/1.1/DTD/svg11.dtd"><svg class="icon" width="200px" height="200.00px" viewBox="0 0 1024 1024" version="1.1" xmlns="http://www.w3.org/2000/svg"><path fill="#333333" d="M539.86432 401.92a428.0064 428.0064 0 0 1-11.136-77.1328 247.6544 247.6544 0 1 1 495.3088 0 245.76 245.76 0 0 1-244.864 242.3808H768.03712a421.5808 421.5808 0 0 1 38.9632 143.232h11.136a107.52 107.52 0 1 1 0 214.8608h-89.0368a110.08 110.08 0 0 1-111.3088-104.6784v-11.1104a326.0672 326.0672 0 0 1-178.0992 0v22.0416A120.8064 120.8064 0 0 1 322.82752 947.2H222.75712a120.8064 120.8064 0 0 1-116.992-115.6864 119.7824 119.7824 0 0 1 111.3088-115.6864 365.5168 365.5168 0 0 1 33.28-187.2896 241.3056 241.3056 0 0 1 166.9632-115.6864 309.0944 309.0944 0 0 1 122.4448-11.008z m200.3456 110.08c11.136 0 22.272 5.504 38.9632 5.504a196.1984 196.1984 0 0 0 194.7904-192.8192 192.6144 192.6144 0 0 0-194.7904-192.8192 193.9456 193.9456 0 0 0-200.3456 192.8192 257.152 257.152 0 0 0 22.272 88.1408A281.856 281.856 0 0 1 740.20992 512z m-105.728 231.3728h11.136a26.1632 26.1632 0 0 1 27.6992 27.5456v49.5872a51.2 51.2 0 0 0 55.6544 49.5872h89.0368a51.2 51.2 0 0 0 55.6544-49.5872 52.3264 52.3264 0 0 0-55.5264-55.0656h-38.9632a29.6448 29.6448 0 0 1-27.8272-27.5456 352.3328 352.3328 0 0 0-44.5184-181.76c-61.2096-99.1488-166.9632-121.1904-278.272-93.6448-5.5552 0-16.6912 5.504-22.272 5.504a66.7392 66.7392 0 0 1 27.8272 27.5456 16.64 16.64 0 0 1 0 22.0416 17.0752 17.0752 0 0 1-22.272 0 86.4768 86.4768 0 0 0-44.5184-33.0496 190.8736 190.8736 0 0 0-66.7904 66.0992 266.24 266.24 0 0 0-33.28 137.728 109.568 109.568 0 0 1 72.3456 5.504 169.472 169.472 0 0 1 72.3456 49.5872h11.136a272.7936 272.7936 0 0 0 38.9632 16.5376 325.12 325.12 0 0 0-16.6912-192.8192 14.72 14.72 0 0 1 5.5552-22.0416 16.7424 16.7424 0 0 1 22.272 5.504 355.1232 355.1232 0 0 1 22.2464 214.8352 240.8704 240.8704 0 0 0 139.136-22.0416z m-361.7536-22.0416v22.0416a29.6448 29.6448 0 0 1-27.8272 27.5456H222.75712a60.5952 60.5952 0 1 0 0 121.1904h100.1728A61.44 61.44 0 0 0 384.03712 831.5136V765.44a102.0672 102.0672 0 0 0-55.6544-38.5536 67.9936 67.9936 0 0 0-55.6544-5.504z m-194.7904 33.0752a22.016 22.016 0 0 1 11.136 33.0496 29.5168 29.5168 0 0 1-38.9632 11.008A117.4016 117.4016 0 0 1 0.03712 699.3152a112.4352 112.4352 0 0 1 116.864-110.08h50.0992a23.808 23.808 0 0 1 22.272 22.0416 25.2672 25.2672 0 0 1-22.272 27.5456H116.90112a61.44 61.44 0 0 0-61.2096 60.5952 63.5648 63.5648 0 0 0 22.272 55.0912z" /></svg>