<?xml version="1.0" standalone="no"?><!DOCTYPE svg PUBLIC "-//W3C//DTD SVG 1.1//EN" "http://www.w3.org/Graphics/SVG/1.1/DTD/svg11.dtd"><svg class="icon" width="200px" height="200.00px" viewBox="0 0 1024 1024" version="1.1" xmlns="http://www.w3.org/2000/svg"><path fill="#333333" d="M133.11488 433.34144V253.12256S255.40608 2.5088 541.81888 2.5088C828.24192 2.5088 980.48 271.36 980.48 476.23168c0 127.92832-189.6704 246.58944-174.08 302.86336C915.62496 993.28 934.44096 1024 934.44096 1024h-38.62016s-133.82144-210.53952-133.82144-262.03136 147.05152-141.2608 179.23072-276.42368c24.6016-103.31136-112.98816-451.25632-392.97024-448.04096-279.98208 3.21536-370.08896 222.0544-370.08896 222.0544v202.74688S63.5392 588.84096 83.2 597.76c42.31168 19.2-8.0384 4.0704 55.04 23.04l30.27456 122.56256 43.34592 6.18496-1.50528 34.57024-38.37952 8.27392 9.41568 40.00256s3.21536 32.1792 41.83552 32.1792c38.61504 0 173.77792 3.22048 173.77792 3.22048L491.93984 1024h-46.66368l-77.2352-120.8064-151.25504 3.21536s-61.14304-22.52288-77.2352-70.79936c-16.09216-48.27136-48.95232-202.74176-48.95232-202.74176L20.48 626.432l112.63488-193.09056zM217.87136 434.39616h123.35616v41.83552H217.87136zM577.21856 512.91136s64.36352-93.82912 99.7632 4.85376c19.07712 53.1712 21.98528 74.99776-4.98688 95.35488-23.08096 17.42336-35.84 47.36-35.84 47.36l-77.13792 5.5296s-29.75744 35.72224 10.15296 42.15296c24.1408 3.89632 171.10528-5.90848 187.19744-179.69152-11.80672-155.55072-130.87744-112.66048-153.40544-94.40768-22.52288 18.2528-38.00064 68.992-38.00064 68.992l12.25728 9.856z" /></svg>