<?xml version="1.0" standalone="no"?><!DOCTYPE svg PUBLIC "-//W3C//DTD SVG 1.1//EN" "http://www.w3.org/Graphics/SVG/1.1/DTD/svg11.dtd"><svg class="icon" width="200px" height="200.00px" viewBox="0 0 1024 1024" version="1.1" xmlns="http://www.w3.org/2000/svg"><path fill="#333333" d="M510.8224 0c281.9584 0 510.8224 228.864 510.8224 510.8224 0 281.9584-228.864 510.8224-510.8224 510.8224C228.864 1021.6448 0 792.7808 0 510.8224 0 228.864 228.864 0 510.8224 0z m0 939.9296c236.544 0 429.056-192.5632 429.056-429.056 0-236.544-192.512-429.1584-429.056-429.1584-236.544 0-429.056 192.6144-429.056 429.1072 0 236.544 192.512 429.056 429.056 429.056zM418.8672 674.304a40.96 40.96 0 0 1-40.8576-40.8576v-245.248a40.96 40.96 0 0 1 40.8576-40.8064 40.96 40.96 0 0 1 40.8576 40.8576v245.1968a40.96 40.96 0 0 1-40.8576 40.8576z m183.9104 0a40.96 40.96 0 0 1-40.8576-40.8576v-245.248a40.96 40.96 0 0 1 40.8576-40.8064 40.96 40.96 0 0 1 40.8576 40.8576v245.1968a40.96 40.96 0 0 1-40.8576 40.8576z"  /></svg>