<?xml version="1.0" standalone="no"?><!DOCTYPE svg PUBLIC "-//W3C//DTD SVG 1.1//EN" "http://www.w3.org/Graphics/SVG/1.1/DTD/svg11.dtd"><svg t="1596207923080" class="icon" viewBox="0 0 1024 1024" version="1.1" xmlns="http://www.w3.org/2000/svg" p-id="3786" xmlns:xlink="http://www.w3.org/1999/xlink" width="200" height="200"><defs><style type="text/css"></style></defs><path d="M575.757 785.07h20.135v3.472h-20.135v-3.472zM664.349 763.577h4.983v16.107h-4.983v-16.107zM433.106 771.782h-15.529c-0.05 0.067-0.1 0.125-0.151 0.176 1.946 2.5 4.404 4.555 7.374 6.166 3.474-1.863 6.242-3.978 8.306-6.342z" p-id="3787" fill="#1afa29"></path><path d="M442.771 763.777h-36.846v37.702h36.846v-37.702z m-7.6 36.041c-7.418-1.644-15.387-3.052-23.91-4.227l1.057-3.473c8.389 1.106 16.46 2.4 24.211 3.875l-1.359 3.825z m-18.625-10.923l1.007-3.371a697.292 697.292 0 0 1 15.553 2.516l-1.057 3.523c-5.503-1.107-10.671-1.996-15.503-2.668z m23.456-2.616c-5.955-1.36-10.99-2.895-15.1-4.606-4.112 1.846-9.565 3.649-16.36 5.411a21.24 21.24 0 0 0-1.712-3.221c5.889-1.209 10.755-2.593 14.597-4.153-2.366-1.627-4.404-3.497-6.116-5.612a66.508 66.508 0 0 1-5.21 4.48 88.244 88.244 0 0 0-2.466-2.467c4.597-3.322 8.373-7.23 11.326-11.728l3.323 1.56a37.674 37.674 0 0 1-2.014 2.719h17.819v2.97c-2.467 2.986-5.612 5.68-9.438 8.078 3.54 1.191 7.877 2.123 13.011 2.794-0.77 1.51-1.324 2.767-1.66 3.775zM680.053 763.475h5.034v16.209h-5.034v-16.209zM575.757 791.664h20.135v3.474h-20.135v-3.474z" p-id="3788" fill="#1afa29"></path><path d="M825.426 278.23C747.09 216.17 646.372 190.737 550.741 166.32c-76.301-19.33-104.787-23.399-154.638-53.92C359.48 89.002 278.091 48.308 270.97 57.464c-8.138 8.138 17.295 35.607 27.469 69.18 15.26 47.815 3.053 86.474-35.607 115.978-89.527 68.162-206.523 187.192-198.383 352.004 11.19 224.835 216.696 380.49 467.982 364.212C784.734 942.56 954.632 779.784 959.72 554.949c3.05-108.856-44.766-203.47-134.293-276.72zM383.123 766.193h3.573v29.548h-3.573v-29.548z m-82.098-4.78h40.823v3.774h-40.823v-3.775z m-4.429 39.462c3.758-4.865 7.4-10.57 10.923-17.114l3.675 2.064a198.52 198.52 0 0 1-11.276 17.417 109.69 109.69 0 0 0-3.322-2.367z m28.137-0.502c0 4.193-2.198 6.307-6.594 6.341-2.333 0-4.95-0.017-7.853-0.05-0.202-1.376-0.453-2.92-0.755-4.63 2.651 0.268 5.151 0.402 7.5 0.402 2.281 0 3.422-1.125 3.422-3.373v-19.026h-24.06v-3.775h49.933v3.775h-21.594v20.336z m18.07 1.76c-4.16-6.072-8.053-11.409-11.677-16.006l3.372-2.265a276.564 276.564 0 0 1 11.98 15.855l-3.675 2.417z m15.001 5.387h-3.423v-29.447a109.676 109.676 0 0 1-4.932 9.111c-0.402-1.342-0.94-2.886-1.61-4.631 4.328-7.35 7.533-15.486 9.613-24.413l3.725 0.704a94.088 94.088 0 0 1-3.373 11.124v37.552z m24.11-42.936h-10.269a111.57 111.57 0 0 1-1.736 7.751h9.79v3.473c-1.377 13.224-6.762 23.827-16.158 31.813-0.738-1.007-1.661-2.097-2.768-3.272 4.748-3.825 8.423-8.439 11.023-13.842a213.409 213.409 0 0 0-5.486-4.328l2.013-2.819a94.439 94.439 0 0 1 4.958 3.65c1.291-3.44 2.188-7.174 2.693-11.2h-7.072c-1.896 6.14-4.237 11.074-7.022 14.798a25.995 25.995 0 0 0-2.416-3.12c3.791-5.453 6.602-13.087 8.43-22.903h-5.46v-3.524h19.48v3.523z m13.792 35.738c0 2.55-0.403 4.294-1.208 5.235-0.705 0.872-2.114 1.325-4.228 1.359-1.443 0.034-3.775 0-6.997-0.1a31.15 31.15 0 0 0-0.705-4.179c2.584 0.268 4.698 0.403 6.343 0.403 1.308 0.033 2.148-0.202 2.517-0.704 0.403-0.437 0.604-1.51 0.604-3.223V758.29h3.674v42.032z m297.436-38.256h3.524v33.675h-3.524v-33.675z m-221.68-0.755h26.779v3.523h-26.78v-3.523z m-24.916 46.209h-3.775v-2.416h-36.846v2.416h-3.775v-47.366h44.396v47.366z m15.805-0.1h-3.523v-27.257c-1.779 5.772-3.893 10.41-6.342 13.917a55.62 55.62 0 0 0-1.661-4.43c3.725-5.738 6.275-11.744 7.651-18.02h-7.3v-3.423h7.652v-9.865h3.523v9.865h6.846v3.423h-6.846v8.91l2.166-2.265c2.146 1.846 4.043 3.624 5.687 5.335l-2.668 2.77a128.967 128.967 0 0 0-5.185-5.538v26.577z m3.373-6.947c2.684-4.328 5.387-9.698 8.105-16.108l3.775 1.51c-2.752 6.141-5.487 11.595-8.205 16.36-1.041-0.605-2.266-1.192-3.675-1.762z m20.939 0.15c0 4.195-1.929 6.292-5.788 6.292-1.812 0.034-4.044 0.017-6.695-0.05a83.711 83.711 0 0 0-0.704-4.177c2.315 0.268 4.43 0.403 6.342 0.403 2.013 0 3.02-1.243 3.02-3.726v-19.782h-13.692v-3.523h31.41v3.523h-13.894v21.04z m10.822 1.562c-2.18-5.201-4.681-10.57-7.5-16.108l3.574-1.712c3.189 6.108 5.839 11.46 7.953 16.057l-4.027 1.763z m28.466 5.99h-3.524l3.096-13.415h4.682l-4.254 13.414z m2.409-218.635l38.66-40.694 41.711-42.729c4.07-3.053 3.053-5.087-2.034-6.104-3.053 0-27.469-5.087-51.885-10.174l-47.816-10.173c-1.017-55.955 15.26-91.562 42.73-95.631 35.606-4.07 72.231 42.729 85.457 128.186 11.19 72.232-13.226 134.29-46.798 137.343-23.4 3.052-44.765-20.347-60.025-60.024z m38.89 177.661l-3.523 2.919c-2.316-2.986-4.581-5.638-6.796-7.953l3.02-2.568c2.753 2.72 5.185 5.253 7.3 7.602z m-6.24 38.658l-2.317-3.323c1.141-1.073 1.712-2.534 1.712-4.38V779.13h-6.14v-3.674h9.966v23.456c1.878-1.276 3.758-2.6 5.638-3.976 0.1 1.678 0.218 3.137 0.352 4.38-3.625 2.416-6.695 4.596-9.212 6.543z m38.808-4.43c0 3.625-1.861 5.453-5.587 5.487-1.98 0.034-4.514 0.051-7.6 0.051a63.258 63.258 0 0 0-0.755-3.875c2.919 0.2 5.302 0.302 7.146 0.302 1.914 0 2.87-0.873 2.87-2.618v-2.516h-20.135v9.11h-3.925v-25.52h27.986v19.58z m4.279-22.65h-36.695v-3.171h16.258v-3.473h-12.885v-3.172h12.885v-3.372h-14.649v-3.172h14.65v-4.529h4.076v4.53h15.353v3.17h-15.352v3.373h14.043v3.172h-14.043v3.473h16.36v3.171z m50.94 23.203c-0.336 1.679-1.075 2.852-2.216 3.524-1.007 0.637-2.818 0.956-5.436 0.956h-5.989c-4.698 0.202-6.947-1.997-6.745-6.594V784.97h-9.84c-0.27 5.806-1.435 10.269-3.5 13.39-2.482 3.893-6.978 7.046-13.49 9.463-0.67-1.073-1.526-2.282-2.567-3.624 5.973-2.047 10.084-4.682 12.332-7.902 1.846-2.483 2.911-6.259 3.196-11.326h-14.119v-3.725h21.996v-10.721h-12.056c-1.644 3.322-3.414 6.207-5.31 8.657-1.242-0.973-2.333-1.745-3.271-2.316 3.759-4.864 6.677-10.687 8.758-17.465l3.926 1.107a86.948 86.948 0 0 1-2.39 6.292h10.343v-8.557h4.128v8.557h18.675v3.726h-18.675v10.721h22.147v3.725h-16.208v14.244c-0.2 2.584 0.957 3.759 3.473 3.525h5.135c2.316 0 3.591-0.872 3.826-2.618 0.235-1.71 0.419-4.16 0.554-7.348a43.562 43.562 0 0 0 4.228 1.51 80.627 80.627 0 0 1-0.905 7.698z m37.047-19.076h-3.724v19.228c0 3.155-1.377 4.73-4.127 4.73-1.209 0-2.635-0.048-4.28-0.15a20.275 20.275 0 0 0-0.604-3.472c1.377 0.234 2.668 0.369 3.876 0.402 1.242 0.034 1.862-0.737 1.862-2.315v-18.423h-5.034v5.184c0 8.356-1.544 14.917-4.63 19.681-0.94-1.208-1.778-2.148-2.516-2.818 2.584-3.926 3.875-9.546 3.875-16.863v-5.184h-4.178v17.819c0 3.289-1.393 4.932-4.178 4.932-1.109 0-2.35-0.049-3.725-0.15a30.239 30.239 0 0 0-0.604-3.472c1.51 0.234 2.668 0.352 3.473 0.352 1.174 0 1.761-0.722 1.761-2.165v-17.316h-4.983v5.788c0 7.752-1.595 14.077-4.782 18.977-0.94-1.209-1.779-2.148-2.516-2.818 2.683-4.195 4.026-9.866 4.026-17.014v-4.932h-4.026v-3.222h4.026v-19.228h11.527v19.228h4.178v-19.33h11.578v19.33h3.724v3.221z m12.484 18.573c0 3.625-1.593 5.437-4.782 5.437-1.913 0-4.146-0.034-6.695-0.1a31.15 31.15 0 0 0-0.705-4.179c2.416 0.235 4.346 0.369 5.79 0.403 1.811 0.033 2.717-0.872 2.717-2.718v-42.03h3.674v43.187z m11.426-4.127a43.255 43.255 0 0 0-1.057-4.228c1.578 0.402 3.07 0.537 4.481 0.402 2.281-0.234 3.02-2.516 2.214-6.845-0.403-2.349-1.862-5.169-4.38-8.457 1.243-4.294 2.585-8.925 4.027-13.892h-6.392v43.54h-3.725v-47.064h14.194v3.524c-1.61 5.033-3.037 9.446-4.28 13.238 2.585 3.49 4.061 6.493 4.43 9.01 0.941 6.342-0.587 9.917-4.58 10.722-1.24 0.268-2.884 0.285-4.932 0.05z m7.45 5.437c2.75-3.222 5.25-7.064 7.5-11.528l3.322 1.813c-2.383 4.396-4.932 8.406-7.651 12.03a93.931 93.931 0 0 0-3.171-2.315z m31.862 1.408c-3.457-3.993-6.46-7.348-9.01-10.067l2.818-2.467c2.986 2.953 6.09 6.19 9.312 9.715l-3.12 2.819z m1.763-25.369c-6.779-3.993-12.048-8.909-15.806-14.749-2.92 4.364-6.275 8.171-10.068 11.426h20.638v3.525h-8.608v6.342h13.54v3.523h-13.54v12.484c0 3.859-1.812 5.788-5.437 5.788-1.409 0-3.288-0.018-5.637-0.05a99.703 99.703 0 0 0-0.705-4.179 35.47 35.47 0 0 0 5.185 0.402c1.845 0 2.768-0.94 2.768-2.818v-11.628h-12.684v-3.523H739.4v-6.342h-9.412v-2.416a79.264 79.264 0 0 1-3.725 2.918 28.933 28.933 0 0 0-2.467-3.423c7.08-4.797 12.417-10.436 16.007-16.912h4.127l-0.654 1.41c3.557 6.04 8.892 10.738 16.007 14.094-0.87 1.578-1.61 2.953-2.213 4.128z m86.67-176.063c-21.365 5.087-38.66-22.382-50.868-63.075 13.225-12.208 24.416-23.4 35.607-32.556 19.33-16.278 35.607-32.555 38.66-35.607 3.05-3.051 2.034-5.087-2.035-6.104-3.051 0-23.399-3.052-44.763-7.121-12.208-3.051-26.452-5.087-41.712-8.138 0-48.834 13.225-94.614 41.712-99.701 31.538-6.104 59.006 53.92 67.145 121.065 8.14 81.387-16.278 124.116-43.747 131.237z" p-id="3789" fill="#1afa29"></path></svg>